<svg width="65" height="65" viewBox="0 0 65 65" fill="none" xmlns="http://www.w3.org/2000/svg">
<path d="M31.0372 39.2166C25.7289 39.2166 21.3956 34.8833 21.3956 29.5749C21.3956 24.2666 25.7289 19.9333 31.0372 19.9333C36.3456 19.9333 40.6789 24.2666 40.6789 29.5749C40.6789 34.8833 36.3456 39.2166 31.0372 39.2166ZM31.0372 24.0229C27.9768 24.0229 25.4581 26.5146 25.4581 29.6021C25.4581 32.6896 27.9497 35.1812 31.0372 35.1812C34.1247 35.1812 36.6164 32.6896 36.6164 29.6021C36.6164 26.5146 34.1247 24.0229 31.0372 24.0229Z" fill="white"/>
<path d="M45.0938 56.7396C43.9834 56.7396 43.0625 55.8188 43.0625 54.7084C43.0625 49.5084 37.673 45.2833 31.0375 45.2833C24.4021 45.2833 19.0125 49.5084 19.0125 54.7084C19.0125 55.8188 18.0917 56.7396 16.9813 56.7396C15.8709 56.7396 14.95 55.8188 14.95 54.7084C14.95 47.2875 22.1542 41.2208 31.0375 41.2208C39.9209 41.2208 47.125 47.2605 47.125 54.7084C47.125 55.8188 46.2042 56.7396 45.0938 56.7396Z" fill="white"/>
<path d="M31.1458 61.6146C15.8437 61.6146 3.38541 49.1562 3.38541 33.8542C3.38541 18.5521 15.8437 6.09375 31.1458 6.09375C34.9104 6.09375 38.5396 6.82497 41.9521 8.26038C42.9271 8.66663 43.4146 9.74992 43.0896 10.752C42.7917 11.6458 42.6562 12.5937 42.6562 13.5417C42.6562 15.1396 43.0896 16.7104 43.9292 18.0645C44.3625 18.8229 44.9312 19.4999 45.5812 20.0687C47.9375 22.2083 51.4312 22.8855 54.1667 21.9105C55.1687 21.5313 56.3062 22.0459 56.7125 23.0479C58.175 26.4875 58.9062 30.1438 58.9062 33.8813C58.9062 49.1563 46.4479 61.6146 31.1458 61.6146ZM31.1458 10.1562C18.0917 10.1562 7.44791 20.7729 7.44791 33.8542C7.44791 46.9354 18.0917 57.5521 31.1458 57.5521C44.2 57.5521 54.8437 46.9354 54.8437 33.8542C54.8437 31.2542 54.4104 28.6812 53.5979 26.2166C49.8604 26.8666 45.7708 25.7021 42.9 23.0751C41.9521 22.2626 41.1125 21.2604 40.4625 20.15C39.2708 18.2 38.6208 15.8979 38.6208 13.5417C38.6208 12.8104 38.675 12.1063 38.8104 11.4021C36.3458 10.5626 33.7729 10.1562 31.1458 10.1562Z" fill="white"/>
<path d="M51.4583 26.4062C48.2625 26.4062 45.2292 25.2146 42.8729 23.075C41.925 22.2625 41.0854 21.2604 40.4354 20.15C39.2438 18.2 38.5938 15.8979 38.5938 13.5416C38.5938 12.1604 38.8104 10.8063 39.2438 9.50626C39.8396 7.66459 40.8687 5.95832 42.25 4.57707C44.6875 2.0854 47.9646 0.677063 51.4854 0.677063C55.1687 0.677063 58.6625 2.24794 61.0458 4.95628C63.1583 7.31253 64.35 10.3458 64.35 13.5416C64.35 14.5708 64.2146 15.6 63.9438 16.575C63.6729 17.7937 63.1583 19.0667 62.4542 20.1771C60.8833 22.8313 58.3917 24.8083 55.4667 25.7291C54.2479 26.1896 52.8937 26.4062 51.4583 26.4062ZM51.4583 4.73956C49.0479 4.73956 46.8 5.68743 45.1479 7.39368C44.2 8.36868 43.5229 9.47907 43.1167 10.752C42.8187 11.6457 42.6833 12.5937 42.6833 13.5416C42.6833 15.1396 43.1167 16.7103 43.9562 18.0645C44.3896 18.8228 44.9583 19.4999 45.6083 20.0687C47.9646 22.2082 51.4583 22.8855 54.1938 21.9105C56.2521 21.2605 57.9313 19.9062 59.0146 18.0916C59.5021 17.3062 59.8271 16.4667 60.0167 15.6271C60.2063 14.9229 60.2875 14.2458 60.2875 13.5416C60.2875 11.375 59.475 9.28961 58.0125 7.66461C56.3604 5.79586 53.9771 4.73956 51.4583 4.73956Z" fill="white"/>
<path d="M55.4937 15.5187H47.3958C46.2854 15.5187 45.3646 14.5978 45.3646 13.4874C45.3646 12.377 46.2854 11.4562 47.3958 11.4562H55.4937C56.6042 11.4562 57.525 12.377 57.525 13.4874C57.525 14.5978 56.6312 15.5187 55.4937 15.5187Z" fill="white"/>
<path d="M51.4583 19.6625C50.3479 19.6625 49.4271 18.7417 49.4271 17.6313V9.53339C49.4271 8.42297 50.3479 7.50214 51.4583 7.50214C52.5687 7.50214 53.4896 8.42297 53.4896 9.53339V17.6313C53.4896 18.7688 52.5687 19.6625 51.4583 19.6625Z" fill="white"/>
</svg>
