<svg width="65" height="66" viewBox="0 0 65 66" fill="none" xmlns="http://www.w3.org/2000/svg">
<path d="M44.6875 61.9189H20.3125C11.375 61.9189 10.1562 57.0439 10.1562 51.7626V27.9835C10.1562 26.873 11.0771 25.9522 12.1875 25.9522C13.2979 25.9522 14.2187 26.873 14.2187 27.9835V51.7626C14.2187 56.4751 15.0312 57.8564 20.3125 57.8564H44.6875C49.9687 57.8564 50.7812 56.4751 50.7812 51.7626V27.9835C50.7812 26.873 51.7021 25.9522 52.8125 25.9522C53.9229 25.9522 54.8437 26.873 54.8437 27.9835V51.7626C54.8437 57.0439 53.625 61.9189 44.6875 61.9189Z" fill="white"/>
<path d="M51.4583 29.4189H13.5417C6.98751 29.4189 3.38542 25.8168 3.38542 19.2627V13.846C3.38542 7.29184 6.98751 3.68976 13.5417 3.68976H51.4583C58.0125 3.68976 61.6146 7.29184 61.6146 13.846V19.2627C61.6146 25.8168 58.0125 29.4189 51.4583 29.4189ZM13.5417 7.75226C9.26251 7.75226 7.44792 9.56684 7.44792 13.846V19.2627C7.44792 23.5418 9.26251 25.3564 13.5417 25.3564H51.4583C55.7375 25.3564 57.5521 23.5418 57.5521 19.2627V13.846C57.5521 9.56684 55.7375 7.75226 51.4583 7.75226H13.5417Z" fill="white"/>
<path d="M37.4292 40.2523H27.5708C26.4604 40.2523 25.5396 39.3314 25.5396 38.221C25.5396 37.1106 26.4604 36.1898 27.5708 36.1898H37.4292C38.5396 36.1898 39.4604 37.1106 39.4604 38.221C39.4604 39.3314 38.5396 40.2523 37.4292 40.2523Z" fill="white"/>
</svg>
