<svg width="65" height="65" viewBox="0 0 65 65" fill="none" xmlns="http://www.w3.org/2000/svg">
<path d="M19.175 43.6042C18.2 43.6042 17.2251 43.3604 16.3313 42.8458C14.5167 41.8167 13.4334 39.975 13.4334 37.9166V28.2479C13.4334 27.5437 12.973 26.3521 12.4042 25.675L5.57916 18.4978C4.30624 17.252 3.38542 15.0854 3.38542 13.4333V9.2354C3.38542 5.95831 5.87702 3.35828 9.07285 3.35828H33.1771C36.3187 3.35828 38.8645 5.90413 38.8645 9.04579V13.0542C38.8645 15.1667 37.6459 17.4958 36.4542 18.6875L28.5188 25.702C27.8959 26.2166 27.3812 27.4625 27.3812 28.3833V36.2375C27.3812 38.1062 26.2438 40.1917 24.7542 41.0854L22.2624 42.7104C21.2874 43.3062 20.2313 43.6042 19.175 43.6042ZM9.07285 7.44789C8.15202 7.44789 7.44792 8.23334 7.44792 9.26251V13.4604C7.44792 13.9208 7.90837 15.0854 8.50421 15.6812L15.4916 23.0208C16.5208 24.2937 17.5228 26.3791 17.5228 28.2479V37.9166C17.5228 38.7291 18.0376 39.1354 18.3626 39.2979C18.7959 39.5417 19.5 39.6771 20.0958 39.2979L22.6145 37.6729C22.9395 37.4833 23.3187 36.725 23.3187 36.2646V28.4104C23.3187 26.2708 24.375 23.9145 25.8645 22.6416L33.6646 15.7354C34.1521 15.2479 34.802 13.9208 34.802 13.0542V9.04579C34.802 8.15204 34.0708 7.42078 33.1771 7.42078H9.07285V7.44789Z" fill="white"/>
<path d="M40.625 61.6145H24.375C9.66875 61.6145 3.38542 55.3312 3.38542 40.625V32.5C3.38542 31.3895 4.30625 30.4687 5.41667 30.4687C6.52708 30.4687 7.44792 31.3895 7.44792 32.5V40.625C7.44792 53.1104 11.8896 57.552 24.375 57.552H40.625C53.1104 57.552 57.5521 53.1104 57.5521 40.625V24.3749C57.5521 16.5208 55.7104 11.9708 51.5666 9.6145C51.1333 9.37075 49.698 8.72081 45.5813 8.07081C44.4709 7.90831 43.7126 6.85202 43.9021 5.7416C44.0917 4.63119 45.1479 3.87287 46.2313 4.06245C49.7792 4.6312 52.1897 5.28117 53.5709 6.06659C59.0417 9.18117 61.6146 15.0041 61.6146 24.3749V40.625C61.6146 55.3312 55.3313 61.6145 40.625 61.6145Z" fill="white"/>
<path d="M48.75 37.2396H35.2083C34.0979 37.2396 33.1771 36.3187 33.1771 35.2083C33.1771 34.0979 34.0979 33.1771 35.2083 33.1771H48.75C49.8604 33.1771 50.7812 34.0979 50.7812 35.2083C50.7812 36.3187 49.8604 37.2396 48.75 37.2396Z" fill="white"/>
<path d="M48.75 48.0729H29.7917C28.6812 48.0729 27.7604 47.1521 27.7604 46.0417C27.7604 44.9313 28.6812 44.0104 29.7917 44.0104H48.75C49.8604 44.0104 50.7813 44.9313 50.7813 46.0417C50.7813 47.1521 49.8604 48.0729 48.75 48.0729Z" fill="white"/>
</svg>
